<?xml version="1.0" encoding="UTF-8"?>
<svg version="1.1" xmlns="http://www.w3.org/2000/svg" width="500" height="500">
<path d="M0 0 C0.67289062 0.52980469 1.34578125 1.05960938 2.0390625 1.60546875 C3.01746094 2.32283203 3.01746094 2.32283203 4.015625 3.0546875 C15.84479949 12.40963226 22.48810903 26.77683533 29.55175781 39.74926758 C33.47628192 46.92131029 37.54755873 53.74554651 42.40234375 60.3203125 C44.0390625 62.60546875 44.0390625 62.60546875 45.1640625 64.86328125 C46.35854002 67.24157131 47.62571731 67.49663448 50.0390625 68.60546875 C51.0496875 69.40984375 52.0603125 70.21421875 53.1015625 71.04296875 C59.415695 75.62274726 68.31837056 77.8109803 76.0390625 76.60546875 C86.0166359 74.38124899 94.53670295 70.81201857 100.875 62.46875 C106.63072292 53.25573043 108.44601986 44.39214183 107.0390625 33.60546875 C104.49672201 24.0296929 99.45031565 16.43408034 91.2890625 10.79296875 C82.05275518 5.49462192 72.51603137 4.35310277 62.3515625 6.91796875 C58.49316688 8.03332793 55.45016186 9.47353165 52.0390625 11.60546875 C48.2266747 10.33467282 48.0118655 8.99868991 46.0390625 5.60546875 C44.74326603 4.23562677 43.41913501 2.89036385 42.0390625 1.60546875 C53.45351757 -7.24294603 65.88354012 -9.76078565 80.0390625 -8.39453125 C93.10530241 -5.9437049 104.91486998 0.98130393 112.65625 11.8828125 C120.60712186 24.40246894 123.85361189 37.40376205 120.9140625 51.98046875 C117.61366909 65.1056444 109.97008941 75.83114903 98.7890625 83.48046875 C86.79239663 90.51873458 74.07900937 92.47003031 60.484375 89.9453125 C42.58310123 85.0803781 31.07765161 71.02497583 22.0390625 55.60546875 C19.82841217 51.60789931 17.68211373 47.57709465 15.5390625 43.54296875 C3.79965173 21.13324522 3.79965173 21.13324522 -16.56640625 7.33203125 C-26.80781827 4.22452287 -35.94097126 5.50481311 -45.640625 9.7890625 C-53.61259504 14.06581846 -58.50311925 20.46186379 -61.8984375 28.79296875 C-64.66479862 38.64051839 -63.90165839 48.76657452 -59.5078125 57.94921875 C-54.27773725 66.93015606 -47.39909753 72.45299283 -37.4609375 75.41796875 C-26.26875586 78.11209776 -17.20714376 75.28308465 -6.9609375 70.60546875 C-6.5690625 71.53359375 -6.1771875 72.46171875 -5.7734375 73.41796875 C-3.81353901 76.86468679 -2.36333247 77.76633633 1.0390625 79.60546875 C1.0390625 80.26546875 1.0390625 80.92546875 1.0390625 81.60546875 C-1.51980254 82.92549431 -4.08260818 84.23660657 -6.6484375 85.54296875 C-7.36966797 85.91615234 -8.09089844 86.28933594 -8.83398438 86.67382812 C-19.31554056 91.9863977 -31.50366388 92.20120471 -42.7734375 89.04296875 C-57.14108334 83.97517288 -66.80976657 75.12074663 -73.3659668 61.60742188 C-75.77468679 56.37070204 -77.50101724 51.39024352 -77.9609375 45.60546875 C-78.02925781 44.89648438 -78.09757812 44.1875 -78.16796875 43.45703125 C-78.79726351 30.54483504 -73.85637241 18.05114279 -65.92578125 8.03515625 C-49.02110347 -10.06604137 -20.55497573 -15.13593667 0 0 Z " fill="#FDFDFD" transform="translate(150.9609375,210.39453125)"/>
<path d="M0 0 C6.44405159 3.91344764 11.54723748 10.26876389 13.5625 17.5 C14.40164023 25.58721395 14.01768181 32.54699495 9.5625 39.5 C5.10748352 44.94502015 -0.80112578 49.38814693 -7.875 50.4375 C-16.66213943 50.91981297 -23.82679388 48.34201936 -30.4375 42.5 C-36.61322763 34.85386103 -37.39394387 27.15341024 -36.4375 17.5 C-34.25928133 10.13069944 -29.79524118 4.73849412 -23.4375 0.5 C-16.64358644 -2.90266595 -6.97369244 -3.09030293 0 0 Z M-23.3125 15 C-25.38027319 21.43307215 -25.66815064 27.90195976 -22.75 34.0625 C-19.2188816 37.78448966 -16.60169149 39.64202896 -11.4375 39.875 C-6.27330851 39.64202896 -3.6561184 37.78448966 -0.125 34.0625 C2.79315064 27.90195976 2.50527319 21.43307215 0.4375 15 C-2.24366588 11.42511216 -4.88797764 8.99870896 -9.39453125 8.1171875 C-15.60568522 7.76090716 -19.55365122 9.98820163 -23.3125 15 Z " fill="#FEFEFE" transform="translate(387.4375,268.5)"/>
<path d="M0 0 C25.25210084 0 25.25210084 0 32.20703125 5.859375 C37.68216126 12.30697335 40.61553997 18.10692528 40.2890625 26.69921875 C39.51125309 32.8901612 37.58648513 38.64871924 33 43 C21.85131236 50.84821557 14.66844025 50 0 50 C0 33.5 0 17 0 0 Z M11 9 C11 19.23 11 29.46 11 40 C20.06005806 39.28890348 20.06005806 39.28890348 26 34 C28.61228281 29.72535539 28.65986209 24.8696152 28 20 C26.60479432 15.73083771 24.41083245 12.9632718 20.625 10.5625 C16.73957728 8.60417065 16.73957728 8.60417065 11 9 Z " fill="#FEFEFE" transform="translate(281,268)"/>
<path d="M0 0 C3.63 0 7.26 0 11 0 C11.01981934 1.00901367 11.03963867 2.01802734 11.06005859 3.05761719 C11.13623336 6.80754196 11.22493216 10.55708471 11.31738281 14.30664062 C11.35562358 15.92830859 11.39048503 17.55005996 11.421875 19.171875 C11.46763257 21.50551117 11.52560816 23.83857562 11.5859375 26.171875 C11.59748871 26.89493835 11.60903992 27.61800171 11.62094116 28.36297607 C11.72748207 32.01128665 11.85361345 34.9623012 14 38 C16.03535845 38.84895988 16.03535845 38.84895988 18.375 39 C19.14585937 39.103125 19.91671875 39.20625 20.7109375 39.3125 C24.04792789 38.85693817 24.96823671 37.66259936 27 35 C27.41786702 32.19303997 27.60474313 29.76148059 27.609375 26.953125 C27.62591125 26.18192322 27.64244751 25.41072144 27.65948486 24.6161499 C27.70794593 22.16068546 27.72933037 19.70584016 27.75 17.25 C27.77816146 15.58200013 27.80808914 13.91402908 27.83984375 12.24609375 C27.91370372 8.1641135 27.96328936 4.08247655 28 0 C31.63 0 35.26 0 39 0 C39.09943082 5.26524445 39.17173199 10.52993343 39.21972656 15.79589844 C39.23974959 17.58440684 39.26697654 19.37285054 39.30175781 21.16113281 C39.35068955 23.74300162 39.37306165 26.3239995 39.390625 28.90625 C39.41127014 29.69616333 39.43191528 30.48607666 39.45318604 31.29992676 C39.45542279 36.92789622 38.25540704 41.34387023 35 46 C29.11269733 50.59209608 22.93047473 51.44390126 15.5703125 50.78125 C10.2149595 49.84361244 6.74366734 48.10020709 3 44 C0.38905197 38.22732986 -0.42340944 33.62967623 -0.29296875 27.34375 C-0.28872391 26.55601196 -0.28447906 25.76827393 -0.28010559 24.95666504 C-0.26347617 22.4707441 -0.22585614 19.98567081 -0.1875 17.5 C-0.17243271 15.80209514 -0.15874791 14.10417742 -0.14648438 12.40625 C-0.11362466 8.27051281 -0.06195474 4.1353995 0 0 Z " fill="#FEFEFE" transform="translate(366,185)"/>
<path d="M0 0 C2.8125 1.6875 2.8125 1.6875 3.8125 4.6875 C2.375 7.875 2.375 7.875 0.8125 10.6875 C-0.00734375 10.51992188 -0.8271875 10.35234375 -1.671875 10.1796875 C-2.74953125 9.97601563 -3.8271875 9.77234375 -4.9375 9.5625 C-6.00484375 9.35367187 -7.0721875 9.14484375 -8.171875 8.9296875 C-11.32438351 8.67650676 -12.58709066 8.98334825 -15.1875 10.6875 C-15.1875 12.3375 -15.1875 13.9875 -15.1875 15.6875 C-14.16269531 16.20699219 -13.13789063 16.72648437 -12.08203125 17.26171875 C-10.72109757 17.96564996 -9.36043473 18.67010498 -8 19.375 C-7.32646484 19.71466797 -6.65292969 20.05433594 -5.95898438 20.40429688 C-1.14851301 22.91512827 3.30062729 25.66375458 5.8125 30.6875 C6.26537072 37.48056079 5.45421465 41.61970235 0.875 46.9375 C-6.13141471 50.94116555 -14.1753299 51.37001188 -21.91796875 49.46875 C-25.34066474 48.2905414 -28.15834896 46.66303328 -31.1875 44.6875 C-29.97907144 40.25659529 -28.67081435 37.70637244 -25.1875 34.6875 C-24.54683594 35.06003906 -23.90617187 35.43257813 -23.24609375 35.81640625 C-17.52354739 39.12496972 -17.52354739 39.12496972 -11.125 39.5625 C-8.32282593 38.98143213 -8.32282593 38.98143213 -7.1875 37.6875 C-6.60261438 35.31625402 -6.60261438 35.31625402 -7.1875 32.6875 C-10.32926288 30.09554563 -13.58730856 28.48751966 -17.25 26.75 C-20.93643331 24.95621827 -23.51471802 22.84624234 -26.1875 19.6875 C-27.75590852 14.98227445 -27.73645539 11.16101184 -26 6.5 C-20.34873733 -2.2692007 -9.40437581 -3.73437792 0 0 Z " fill="#FEFEFE" transform="translate(440.1875,268.3125)"/>
<path d="M0 0 C5.19991012 1.86857024 5.19991012 1.86857024 6.46484375 4.3984375 C5.6875 6.34375 5.6875 6.34375 4.52734375 8.5234375 C3.95693359 9.61011719 3.95693359 9.61011719 3.375 10.71875 C3.07464844 11.27304688 2.77429688 11.82734375 2.46484375 12.3984375 C1.81257813 12.15867188 1.1603125 11.91890625 0.48828125 11.671875 C-5.22713997 9.69216622 -5.22713997 9.69216622 -11.16015625 10.2109375 C-11.94390625 10.6028125 -12.72765625 10.9946875 -13.53515625 11.3984375 C-13.60140864 13.78174586 -13.60140864 13.78174586 -12.53515625 16.3984375 C-10.10295021 17.93784595 -7.8801305 19.15085039 -5.28515625 20.3359375 C0.30783896 22.91690542 4.01265502 25.18062552 7.46484375 30.3984375 C8.46390997 35.13742922 8.02046045 39.76631345 6.46484375 44.3359375 C2.20787152 48.72594011 -3.30298013 50.94260406 -9.3984375 51.43359375 C-16.66824636 51.31398081 -22.49451964 49.33798311 -28.53515625 45.3984375 C-28.03216837 40.99729353 -26.44742894 38.68648731 -23.53515625 35.3984375 C-22.01921875 36.3575 -22.01921875 36.3575 -20.47265625 37.3359375 C-16.17210678 39.78220147 -12.09931426 41.00573808 -7.16015625 39.8359375 C-4.7382549 37.69348631 -4.80650935 35.5189982 -4.53515625 32.3984375 C-5.24542969 32.12644531 -5.95570313 31.85445312 -6.6875 31.57421875 C-21.11479952 25.61726792 -21.11479952 25.61726792 -24.53515625 19.3984375 C-26.01250649 14.54428671 -25.52645276 11.04479601 -23.53515625 6.3984375 C-16.78904207 -0.8341753 -9.71324683 -2.30483823 0 0 Z " fill="#FEFEFE" transform="translate(308.53515625,184.6015625)"/>
<path d="M0 0 C11.55 0 23.1 0 35 0 C35 2.97 35 5.94 35 9 C31.04 9 27.08 9 23 9 C23 22.53 23 36.06 23 50 C19.37 50 15.74 50 12 50 C12 36.47 12 22.94 12 9 C8.04 9 4.08 9 0 9 C0 6.03 0 3.06 0 0 Z " fill="#FFFFFF" transform="translate(323,185)"/>
<path d="M0 0 C3.3 0 6.6 0 10 0 C10 16.5 10 33 10 50 C6.7 50 3.4 50 0 50 C0 33.5 0 17 0 0 Z " fill="#FFFFFF" transform="translate(331,268)"/>
</svg>
